<?xml version="1.0" encoding="UTF-8" standalone="no"?>
<svg
   xmlns:dc="http://purl.org/dc/elements/1.1/"
   xmlns:cc="http://creativecommons.org/ns#"
   xmlns:rdf="http://www.w3.org/1999/02/22-rdf-syntax-ns#"
   xmlns:svg="http://www.w3.org/2000/svg"
   xmlns="http://www.w3.org/2000/svg"
   viewBox="0 0 3641.3201 1899.5333"
   height="1899.5333"
   width="3641.3201"
   xml:space="preserve"
   id="svg2"
   version="1.1"><metadata
     id="metadata8"><rdf:RDF><cc:Work
         rdf:about=""><dc:format>image/svg+xml</dc:format><dc:type
           rdf:resource="http://purl.org/dc/dcmitype/StillImage" /></cc:Work></rdf:RDF></metadata><defs
     id="defs6" /><g
     transform="matrix(1.3333333,0,0,-1.3333333,0,1899.5333)"
     id="g10"><g
       transform="scale(0.1)"
       id="g12"><g
         transform="scale(1.43667)"
         id="g14"><path
           id="path16"
           style="fill:none;stroke:#ffffff;stroke-width:6.96054983;stroke-linecap:butt;stroke-linejoin:miter;stroke-miterlimit:22.9260006;stroke-dasharray:none;stroke-opacity:1"
           d="m 3428.16,39.9525 c 0,-4.2443 -0.82,-8.2113 -2.83,-11.0662 -1.92,-3.0616 -5.38,-5.6392 -10.41,-7.866 -4.83,-2.2268 -11.31,-3.967 -19.5,-5.079 -7.94,-1.1855 -17.8,-1.7402 -29.38,-1.7402 -12.68,0 -22.88,0.5547 -31.01,1.7402 -7.93,1.112 -14.14,2.8522 -18.97,5.079 -4.75,2.2268 -7.93,4.8044 -9.59,7.866 -1.44,2.8549 -2.26,6.8219 -2.26,11.0662 V 138.447 C 3261.6,91.6019 3219.76,57.4245 3178.25,35.9855 3137.03,14.2011 3094.98,3.48027 3052.64,3.48027 c -49.7,0 -91.55,8.49133 -125.4,24.84863 -33.91,16.7053 -61.29,38.979 -82.18,67.5173 -21.16,28.5378 -36.12,61.6008 -45.15,99.3968 -9.04,37.519 -13.59,83.598 -13.59,137.471 v 451.878 c 0,4.525 0.84,8.214 2.83,11.276 2,2.855 5.66,5.639 11.04,8.214 5.64,2.507 12.68,3.899 21.71,4.734 8.76,0.905 19.78,1.462 33.02,1.462 13.31,0 24.34,-0.557 33.09,-1.462 8.75,-0.835 15.79,-2.227 21.16,-4.734 5.11,-2.575 8.76,-5.359 11.03,-8.214 2.21,-3.062 3.38,-6.751 3.38,-11.276 V 351.16 c 0,-43.504 3.1,-78.516 9.58,-104.825 6.22,-26.243 15.8,-48.517 28.82,-66.892 12.97,-18.654 29.38,-32.785 49.08,-42.946 20.07,-10.44 43.24,-15.522 69.78,-15.522 34.19,0 68.04,12.181 101.97,36.472 34.13,24.223 70.03,59.793 108.16,106.706 v 520.439 c 0,4.525 0.83,8.214 2.82,11.276 1.94,2.855 5.66,5.639 11.24,8.214 5.38,2.507 12.48,3.899 20.89,4.734 8.48,0.905 19.79,1.462 33.65,1.462 13.23,0 24.27,-0.557 33.01,-1.462 8.77,-0.835 15.86,-2.227 20.62,-4.734 5.1,-2.575 8.76,-5.359 11.3,-8.214 2.55,-3.062 3.66,-6.751 3.66,-11.276 z m 1659.13,0 c 0,-4.2443 -1.11,-8.2113 -3.37,-11.0662 -2.28,-3.0616 -5.53,-5.6392 -10.76,-7.866 -5.03,-2.2268 -11.86,-3.967 -20.55,-5.079 -9.1,-1.1855 -20.06,-1.7402 -33.09,-1.7402 -13.79,0 -25.1,0.5547 -34.13,1.7402 -8.75,1.112 -15.58,2.8522 -20.61,5.079 -4.83,2.2268 -8.35,4.8044 -10.76,7.866 -2.26,2.8549 -3.37,6.8219 -3.37,11.0662 V 475.892 c 0,42.739 -3.11,76.846 -9.72,102.529 -6.69,26.032 -16.13,48.308 -28.96,67.24 -12.61,18.655 -29.09,32.992 -49.43,42.876 -20.06,9.954 -43.08,14.965 -69.62,14.965 -34.27,0 -68.46,-12.11 -102.52,-36.404 -34.54,-24.221 -70.32,-59.861 -107.55,-106.703 V 39.9525 c 0,-4.2443 -1.31,-8.2113 -3.38,-11.0662 -2.41,-3.0616 -5.92,-5.6392 -10.75,-7.866 -5.1,-2.2268 -12.01,-3.967 -20.61,-5.079 -9.18,-1.1855 -20.34,-1.7402 -34.34,-1.7402 -12.83,0 -23.99,0.5547 -32.88,1.7402 -8.77,1.112 -15.92,2.8522 -20.89,5.079 -5.52,2.2268 -9.04,4.8044 -10.9,7.866 -1.78,2.8549 -2.96,6.8219 -2.96,11.0662 V 784.592 c 0,4.525 0.9,8.214 2.42,11.276 1.85,2.855 5.1,5.639 10.05,8.214 4.9,2.507 11.11,3.899 19.18,4.734 7.51,0.905 17.64,1.462 30.47,1.462 12.07,0 22.19,-0.557 30.26,-1.462 7.73,-0.835 14.12,-2.227 18.61,-4.734 4.07,-2.575 7.52,-5.359 9.45,-8.214 1.86,-3.062 2.82,-6.751 2.82,-11.276 v -98.559 c 41.98,46.845 83.64,81.297 125.55,103.084 41.5,21.716 83.41,32.785 125.81,32.785 49.71,0 91.49,-8.491 125.34,-25.477 33.91,-16.705 61.7,-39.256 82.45,-67.169 20.89,-28.258 35.92,-61.321 45.08,-98.84 9.18,-37.864 13.66,-83.317 13.66,-136.146 z m 1652.5,0 c 0,-4.2443 -0.82,-8.2113 -2.82,-11.6236 -1.99,-3.0616 -5.38,-5.9165 -9.86,-7.8633 -4.83,-1.6721 -11.03,-3.4123 -18.68,-4.5243 -7.86,-1.1855 -17.17,-1.7402 -28.2,-1.7402 -11.59,0 -21.16,0.5547 -28.82,1.7402 -7.92,1.112 -14.12,2.8522 -19.16,4.5243 -4.82,1.9468 -8.48,4.8017 -10.75,7.8633 -2.28,3.4123 -3.39,7.3793 -3.39,11.6236 V 138.447 C 6579.1,95.8462 6538.5,62.8543 6496.09,39.1177 6454.04,15.3839 6407.71,3.48027 6357.73,3.48027 c -54.75,0 -101.35,10.72083 -140.01,31.94783 -38.42,21.2324 -69.78,49.9773 -93.76,86.1719 -24,36.127 -41.51,78.445 -52.54,127.31 -11.04,48.863 -16.69,100.232 -16.69,154.176 0,64.105 7.11,122.019 20.61,173.386 13.87,51.647 34.48,95.708 61.3,131.834 27.09,36.402 60.73,64.385 100.51,84.223 40.12,19.419 86.17,29.373 138.64,29.373 43.5,0 83.36,-9.674 119.47,-28.538 36.13,-19.28 71.98,-47.193 107.27,-84.223 v 432.949 c 0,3.69 0.91,7.31 2.83,11 2,3.68 5.66,6.47 11.31,8.21 5.37,1.95 12.41,3.62 20.88,5.08 8.49,1.39 19.52,1.95 32.82,1.95 13.79,0 25.1,-0.56 33.85,-1.95 8.76,-1.46 15.79,-3.13 20.62,-5.08 5.1,-1.74 8.74,-4.53 11.31,-8.21 2.54,-3.69 3.64,-7.31 3.64,-11 z M 6602.53,563.734 c -36.94,45.801 -72.8,80.465 -107.27,104.479 -34.46,24.013 -70.31,36.194 -107.89,36.194 -34.68,0 -64.39,-8.491 -88.38,-24.919 -24.26,-16.567 -44.06,-38.351 -59.29,-65.429 -15.23,-26.866 -26.27,-57.631 -33.03,-91.809 -7.09,-34.177 -10.47,-68.909 -10.47,-104.198 0,-37.519 2.82,-74.269 8.75,-110.118 5.66,-35.567 15.87,-67.515 30.27,-95.499 14.34,-27.91 33.3,-50.254 57,-66.889 23.73,-16.915 53.66,-25.406 89.22,-25.406 18.41,0 35.86,2.504 52.81,7.657 16.69,4.733 33.92,13.225 51.71,24.778 17.5,11.623 36.12,26.588 55.36,44.895 19.16,18.655 39.77,41.209 61.21,68.423 z M 8393.03,444.57 c 0,-21.437 -5.43,-36.959 -16.08,-46.008 -10.79,-9.049 -22.9,-13.573 -36.75,-13.573 h -488.28 c 0,-41.486 4.45,-78.516 12.59,-111.788 8.08,-33.062 21.93,-61.32 41.56,-84.986 19.14,-23.737 44.34,-42.114 75.1,-54.782 31.05,-12.738 68.43,-18.932 113.39,-18.932 35.29,0 66.61,2.784 94.31,8.701 27.36,5.707 51.37,12.181 71.42,19.56 20.05,7.028 36.68,13.502 49.7,19.141 13.08,5.917 22.62,8.769 29.51,8.769 3.55,0 7.17,-0.835 10.02,-2.852 3.07,-1.95 5.5,-4.734 7.1,-8.701 1.61,-3.967 3.07,-9.329 3.9,-16.08 0.56,-6.822 1.12,-15.242 1.12,-25.196 0,-7.309 -0.28,-13.505 -0.84,-18.5845 -0.56,-5.3618 -1.11,-9.8862 -1.81,-14.1305 -1.04,-4.247 -2.37,-7.9366 -4.25,-11.3462 -2.15,-3.0616 -4.66,-6.4739 -7.44,-9.2581 -3.13,-3.1322 -12.18,-8.214 -27.15,-14.9651 -14.69,-6.7512 -34.18,-13.5731 -57.84,-20.3923 -23.74,-6.4738 -51.16,-12.3903 -82.07,-17.7494 -31.25,-5.08171 -64.38,-7.93663 -99.67,-7.93663 -61.46,0 -114.92,8.77143 -161.14,25.68603 -46.01,17.26 -84.57,42.666 -116.17,76.2857 -31.32,33.62 -55.06,75.661 -71.21,126.473 -15.8,50.812 -24.15,109.838 -24.15,177.078 0,63.828 8.63,121.461 25.06,172.551 16.49,50.812 40.3,94.315 71.55,129.885 31.12,35.566 68.57,62.645 112.9,81.925 44.2,18.864 93.48,28.538 148.06,28.538 58.6,0 108.16,-9.397 149.37,-28.261 40.86,-18.655 74.82,-44.058 101.34,-75.729 26.59,-31.602 45.8,-68.912 58.33,-111.578 12.25,-42.878 18.52,-88.331 18.52,-136.913 z m -137.33,40.371 c 1.74,71.764 -14.06,128.283 -47.68,168.934 -33.13,40.858 -82.7,61.183 -148.19,61.183 -33.97,0 -63.21,-6.474 -88.54,-19.142 -25.41,-12.39 -46.77,-29.373 -63.55,-50.255 -17.26,-20.881 -30.63,-45.523 -39.96,-73.156 -9.18,-27.981 -14.68,-57.006 -15.86,-87.564 z M 9801.49,735.73 c 0,-12.181 -0.27,-22.274 -0.76,-30.488 -0.56,-8.491 -1.74,-14.965 -3.13,-19.489 -1.74,-4.802 -4.04,-8.144 -6.2,-10.719 -2.57,-2.574 -5.91,-3.757 -10.51,-3.757 -4.52,0 -9.81,1.183 -16.01,3.757 -6.54,2.575 -13.64,4.734 -21.57,7.309 -8.15,2.575 -16.92,4.802 -26.8,7.099 -10.09,2.227 -20.89,3.342 -32.44,3.342 -13.85,0 -27.15,-2.784 -40.44,-8.424 -13.23,-5.427 -27.35,-14.407 -41.76,-27.146 -14.69,-12.738 -29.93,-29.65 -46.08,-50.602 -15.73,-20.882 -33.55,-46.497 -52.69,-76.776 V 39.9525 c 0,-4.2443 -1.19,-8.2113 -3.48,-11.0662 -2.16,-3.0616 -5.92,-5.6392 -10.65,-7.866 -5.15,-2.2268 -11.9,-3.967 -20.61,-5.079 -9.04,-1.1855 -20.39,-1.7402 -34.24,-1.7402 -12.95,0 -23.95,0.5547 -33,1.7402 -8.77,1.112 -15.87,2.8522 -20.88,5.079 -5.43,2.2268 -9.05,4.8044 -10.79,7.866 -1.95,2.8549 -3.06,6.8219 -3.06,11.0662 V 784.592 c 0,4.525 0.84,8.214 2.51,11.276 1.74,2.855 5.15,5.639 9.88,8.214 5.08,2.507 11.28,3.899 19.21,4.734 7.59,0.905 17.82,1.462 30.49,1.462 12.11,0 22.34,-0.557 30.21,-1.462 7.93,-0.835 14.13,-2.227 18.65,-4.734 4.25,-2.575 7.59,-5.359 9.61,-8.214 1.74,-3.062 2.85,-6.751 2.85,-11.276 V 676.149 c 20.33,29.931 39.47,54.222 57.36,72.877 18.02,18.584 34.94,33.549 51.09,44.338 15.73,10.718 31.6,18.026 47.4,22.273 15.8,3.967 31.67,6.265 47.4,6.265 7.38,0 15.52,-0.557 24.57,-1.463 9.12,-0.835 18.65,-2.295 28.54,-4.524 9.95,-2.227 18.93,-4.525 26.8,-7.377 8.21,-2.784 13.85,-5.639 16.98,-8.146 3.34,-2.852 5.64,-5.359 6.75,-7.863 1.19,-2.578 2.02,-5.707 2.86,-9.677 0.9,-3.896 1.46,-9.606 1.67,-16.912 0.27,-7.379 0.27,-17.472 0.27,-30.21 z m 1972.11,50.535 c 0,-3.967 -0.5,-8.424 -1.6,-14.131 -1.2,-5.639 -3.2,-12.39 -6,-20.604 L 11547,44.1288 c -1.8,-6.1938 -4.3,-10.9275 -8,-14.9625 -3.6,-3.899 -8.4,-6.7539 -14.9,-8.9807 -6.2,-2.2975 -15,-3.6896 -26.1,-4.5244 -11,-0.9054 -24.8,-1.4601 -41.2,-1.4601 -17.3,0 -31.6,0.5547 -43.2,1.7402 -11.5,1.112 -20.5,2.8522 -27.7,5.079 -6.7,2.2268 -11.9,5.0818 -15.1,8.9807 -3.5,4.0377 -6,8.4914 -7.5,14.1278 l -156.3,540.2802 -1.7,7.308 -1.8,-7.308 -144.8,-540.2802 c -1.5,-6.1938 -4.2,-10.9275 -7.7,-14.9625 -3.6,-3.899 -8.9,-6.7539 -16,-8.9807 -7.5,-2.2975 -16.7,-3.6896 -28,-4.5244 -11.3,-0.9054 -25.1,-1.4601 -41.8,-1.4601 -16.9,0 -30.7,0.5547 -41.7,1.7402 -10.8,1.112 -19.6,2.8522 -26.3,5.079 -7.1,2.2268 -12.2,5.0818 -15.2,8.9807 -3.5,4.0377 -6,8.4914 -7.7,14.1278 L 10656.8,751.53 c -2.8,8.214 -4.7,14.965 -5.9,20.604 -1.1,5.707 -1.7,10.164 -1.7,14.131 0,4.801 1.1,9.048 3.4,11.9 2.3,3.065 6,5.64 11.4,7.589 4.9,2.018 12.1,3.062 20.8,3.619 9.1,0.625 19.8,0.905 32.5,0.905 15.2,0 27.6,-0.557 37,-1.462 9.6,-0.835 16.7,-1.879 21.7,-3.897 4.8,-2.02 8.5,-4.804 10.7,-8.494 2.1,-3.339 4,-7.656 5.6,-12.667 l 179.7,-613.921 1.7,-7.308 1.8,7.308 164.6,613.921 c 0.8,5.011 2.8,9.328 5.2,12.667 2.4,3.69 6.2,6.474 11.1,8.494 5,2.018 11.8,3.062 20.4,3.897 8.4,0.905 19.7,1.462 33.4,1.462 13.1,0 24.2,-0.557 32.6,-1.462 8.7,-0.835 15.6,-1.879 20.3,-3.897 5.1,-2.02 8.5,-4.527 10.7,-7.936 2.4,-3.342 4,-7.032 5.1,-11.556 l 177.9,-615.59 1.8,-7.308 0.5,7.308 177.1,613.921 c 1.1,5.011 3,9.328 5.3,12.667 2.5,3.69 6.6,6.474 11.6,8.494 5.4,2.018 12.4,3.062 21.7,3.897 9.1,0.905 20.7,1.462 35,1.462 13.4,0 24,-0.28 32,-0.905 7.9,-0.557 14.4,-1.879 18.9,-4.176 4.8,-2.298 8.1,-4.525 9.9,-7.309 1.9,-2.855 3,-6.822 3,-11.623 z M 13329.2,444.57 c 0,-21.437 -5.4,-36.959 -16.1,-46.008 -10.8,-9.049 -22.9,-13.573 -36.7,-13.573 h -488.2 c 0,-41.486 4.1,-78.516 12.4,-111.788 8.1,-33.062 22,-61.32 41.5,-84.986 19.2,-23.737 44.4,-42.114 75.1,-54.782 31.1,-12.738 68.5,-18.932 113.5,-18.932 35.3,0 66.6,2.784 94.3,8.701 27.4,5.707 51.5,12.181 71.4,19.56 20,7.028 36.7,13.502 49.8,19.141 12.9,5.917 22.5,8.769 29.4,8.769 3.6,0 7.3,-0.835 10.1,-2.852 3.1,-1.95 5.3,-4.734 7,-8.701 1.7,-3.967 3.1,-9.329 4,-16.08 0.5,-6.822 1.1,-15.242 1.1,-25.196 0,-7.309 -0.3,-13.505 -0.9,-18.5845 -0.5,-5.3618 -1.1,-9.8862 -1.9,-14.1305 -0.8,-4.247 -2.3,-7.9366 -4.3,-11.3462 -1.9,-3.0616 -4.5,-6.4739 -7.3,-9.2581 -3.2,-3.1322 -12.1,-8.214 -27.1,-14.9651 -14.6,-6.7512 -34.3,-13.5731 -57.9,-20.3923 -23.8,-6.4738 -51,-12.3903 -82.2,-17.7494 -31,-5.08171 -64.3,-7.93663 -99.6,-7.93663 -61.3,0 -114.8,8.77143 -161,25.68603 -46,17.26 -84.7,42.666 -116.4,76.2857 -31.3,33.62 -55,75.661 -71.1,126.473 -15.8,50.812 -24,109.838 -24,177.078 0,63.828 8.5,121.461 24.8,172.551 16.7,50.812 40.4,94.315 71.8,129.885 31.1,35.566 68.6,62.645 113,81.925 43.9,18.864 93.5,28.538 147.9,28.538 58.5,0 108.1,-9.397 149.3,-28.261 41,-18.655 74.9,-44.058 101.5,-75.729 26.5,-31.602 45.7,-68.912 58,-111.578 12.6,-42.878 18.8,-88.331 18.8,-136.913 z m -137.3,40.371 c 1.7,71.764 -14.1,128.283 -47.7,168.934 -33.2,40.858 -82.7,61.183 -148.2,61.183 -33.9,0 -63.3,-6.474 -88.7,-19.142 -25.3,-12.39 -46.6,-29.373 -63.6,-50.255 -17.2,-20.881 -30.4,-45.523 -39.8,-73.156 -9.2,-27.981 -14.7,-57.006 -15.7,-87.564 z M 14848.7,39.1177 c 0,-6.5418 -2.3,-11.6235 -6.8,-14.6851 -4.2,-3.4123 -10.5,-5.9165 -18,-7.6566 -8,-1.7401 -19.4,-2.5749 -34,-2.5749 -14.5,0 -25.9,0.8348 -34.4,2.5749 -8.5,1.7401 -14.7,4.2443 -18.6,7.6566 -4.1,3.0616 -5.7,8.1433 -5.7,14.6851 v 74.5483 c -32.8,-34.7345 -68.9,-61.8779 -109,-81.0901 -39.8,-19.1415 -82.2,-29.09563 -126.8,-29.09563 -39.2,0 -74.9,5.08175 -106.4,15.59053 -31.8,10.0955 -58.8,24.7806 -81.1,44.0608 -22.4,19.4216 -39.8,43.1554 -52.3,71.1394 -12.1,28.258 -18.3,60.138 -18.3,95.984 0,42.112 8.4,78.236 25.4,109.281 17.2,30.765 41.8,56.519 73.7,76.843 31.9,20.605 71.2,35.847 117.5,46.011 46.4,10.163 98.6,15.242 156.4,15.242 h 102.6 v 57.843 c 0,28.816 -3.2,54.293 -9.2,76.289 -6.2,22.065 -15.7,40.371 -29.3,54.779 -13.5,14.685 -31,25.683 -52.5,33.272 -21.4,7.447 -48,11.066 -79.3,11.066 -34,0 -63.9,-3.899 -90.8,-11.833 -26.7,-8.214 -50.1,-16.985 -70.1,-26.588 -20.4,-9.539 -37.1,-18.307 -50.6,-26.521 -13.5,-7.934 -23.5,-11.833 -30.2,-11.833 -4.3,0 -8.3,1.044 -11.6,3.064 -3.5,2.295 -6.3,5.707 -8.8,10.161 -2.3,4.247 -4.2,9.883 -5.4,16.985 -1.1,6.751 -1.7,14.337 -1.7,22.551 0,13.783 1.2,24.849 3.2,32.786 1.9,7.934 6.4,15.519 14,22.828 7.4,7.102 20.1,15.523 38.5,25.129 18.1,9.606 38.9,18.445 62.7,26.518 23.6,7.936 49.7,14.41 78,19.84 27.8,5.359 56.4,7.934 85.2,7.934 53.4,0 98.8,-6.265 136.3,-18.445 37.7,-12.111 67.9,-29.931 91,-53.319 23.2,-23.457 40,-52.552 50.5,-87.217 10.5,-34.802 15.9,-75.171 15.9,-121.529 z m -135.8,339.9543 h -116.7 c -37.5,0 -70,-3.132 -97.7,-9.328 -27.3,-6.471 -50.2,-15.8 -68.6,-28.258 -18,-12.391 -31.7,-27.356 -40.1,-44.619 -8.5,-17.469 -12.7,-37.239 -12.7,-59.79 0,-38.701 12.2,-69.537 36.7,-92.436 24.5,-22.831 59,-34.387 103.1,-34.387 35.9,0 68.9,9.051 99.6,27.355 30.6,18.098 62.7,46.081 96.4,83.668 z M 16300,735.73 c 0,-12.181 -0.3,-22.274 -1,-30.488 -0.5,-8.491 -1.5,-14.965 -3,-19.489 -1.6,-4.802 -3.9,-8.144 -6.2,-10.719 -2.5,-2.574 -5.9,-3.757 -10.5,-3.757 -4.5,0 -9.9,1.183 -16.1,3.757 -6.4,2.575 -13.5,4.734 -21.2,7.309 -8.3,2.575 -17.1,4.802 -27.1,7.099 -10.2,2.227 -20.8,3.342 -32.3,3.342 -14,0 -27.1,-2.784 -40.5,-8.424 -13,-5.427 -27.3,-14.407 -41.6,-27.146 -14.9,-12.738 -30.1,-29.65 -46.2,-50.602 -15.7,-20.882 -33.6,-46.497 -52.6,-76.776 V 39.9525 c 0,-4.2443 -1.3,-8.2113 -3.5,-11.0662 -2.4,-3.0616 -5.9,-5.6392 -10.7,-7.866 -5,-2.2268 -12.1,-3.967 -20.6,-5.079 -9.3,-1.1855 -20.3,-1.7402 -34.3,-1.7402 -12.9,0 -24.1,0.5547 -32.8,1.7402 -8.9,1.112 -16,2.8522 -21.1,5.079 -5.4,2.2268 -9,4.8044 -10.8,7.866 -2,2.8549 -2.9,6.8219 -2.9,11.0662 V 784.592 c 0,4.525 0.8,8.214 2.3,11.276 1.8,2.855 5.1,5.639 10.1,8.214 5,2.507 11.2,3.899 19.2,4.734 7.4,0.905 17.6,1.462 30.3,1.462 12.1,0 22.4,-0.557 30.4,-1.462 7.8,-0.835 14.2,-2.227 18.7,-4.734 4,-2.575 7.4,-5.359 9.4,-8.214 1.8,-3.062 2.8,-6.751 2.8,-11.276 V 676.149 c 20.3,29.931 39.6,54.222 57.4,72.877 18.1,18.584 35,33.549 51,44.338 15.9,10.718 31.6,18.026 47.6,22.273 15.9,3.967 31.7,6.265 47.3,6.265 7.3,0 15.6,-0.557 24.7,-1.463 8.9,-0.835 18.6,-2.295 28.4,-4.524 9.9,-2.227 18.9,-4.525 26.9,-7.377 8.1,-2.784 13.7,-5.639 17.1,-8.146 3.1,-2.852 5.5,-5.359 6.6,-7.863 1.1,-2.578 2.1,-5.707 2.7,-9.677 0.8,-3.896 1.5,-9.606 1.8,-16.912 0.3,-7.379 0.3,-17.472 0.3,-30.21 z" /></g><g
         transform="scale(1.42912)"
         id="g18"><path
           id="path20"
           style="fill:#ec008c;fill-opacity:1;fill-rule:evenodd;stroke:none"
           d="m 3360.2,40.1634 c 0,-4.2667 -0.83,-8.2546 -2.84,-11.1246 -1.94,-3.0777 -5.41,-5.6689 -10.47,-7.9075 -4.85,-2.2386 -11.37,-3.9879 -19.61,-5.1058 -7.97,-1.1918 -17.89,-1.7494 -29.52,-1.7494 -12.76,0 -23.01,0.5576 -31.19,1.7494 -7.97,1.1179 -14.21,2.8672 -19.07,5.1058 -4.78,2.2386 -7.96,4.8298 -9.63,7.9075 -1.45,2.87 -2.28,6.8579 -2.28,11.1246 V 139.178 C 3192.76,92.0856 3150.7,57.7277 3108.97,36.1755 3067.53,14.2761 3025.26,3.49865 2982.7,3.49865 c -49.96,0 -92.04,8.53615 -126.07,24.97985 -34.09,16.7935 -61.61,39.1848 -82.61,67.8738 -21.27,28.6887 -36.32,61.9257 -45.39,99.9217 -9.09,37.717 -13.66,84.039 -13.66,138.197 v 454.264 c 0,4.548 0.84,8.257 2.84,11.335 2.01,2.87 5.69,5.669 11.1,8.258 5.68,2.52 12.75,3.919 21.83,4.758 8.81,0.91 19.89,1.471 33.19,1.471 13.38,0 24.47,-0.561 33.27,-1.471 8.8,-0.839 15.87,-2.238 21.27,-4.758 5.13,-2.589 8.81,-5.388 11.09,-8.258 2.22,-3.078 3.4,-6.787 3.4,-11.335 V 353.014 c 0,-43.733 3.11,-78.93 9.63,-105.378 6.24,-26.382 15.88,-48.773 28.97,-67.245 13.03,-18.753 29.53,-32.958 49.34,-43.173 20.18,-10.496 43.46,-15.604 70.14,-15.604 34.38,0 68.4,12.245 102.51,36.664 34.31,24.352 70.4,60.109 108.73,107.27 v 523.187 c 0,4.548 0.84,8.257 2.85,11.335 1.94,2.87 5.68,5.669 11.29,8.258 5.41,2.52 12.54,3.919 21,4.758 8.53,0.91 19.89,1.471 33.82,1.471 13.31,0 24.4,-0.561 33.2,-1.471 8.8,-0.839 15.93,-2.238 20.72,-4.758 5.13,-2.589 8.8,-5.388 11.36,-8.258 2.57,-3.078 3.68,-6.787 3.68,-11.335 z m 1667.89,0 c 0,-4.2667 -1.11,-8.2546 -3.4,-11.1246 -2.29,-3.0777 -5.55,-5.6689 -10.81,-7.9075 -5.05,-2.2386 -11.92,-3.9879 -20.66,-5.1058 -9.14,-1.1918 -20.15,-1.7494 -33.26,-1.7494 -13.86,0 -25.23,0.5576 -34.3,1.7494 -8.8,1.1179 -15.67,2.8672 -20.73,5.1058 -4.85,2.2386 -8.39,4.8298 -10.81,7.9075 -2.28,2.87 -3.39,6.8579 -3.39,11.1246 V 478.405 c 0,42.965 -3.12,77.252 -9.78,103.071 -6.72,26.168 -16.21,48.563 -29.11,67.595 -12.67,18.753 -29.24,33.166 -49.69,43.101 -20.16,10.007 -43.31,15.045 -69.99,15.045 -34.45,0 -68.82,-12.175 -103.05,-36.597 -34.73,-24.348 -70.7,-60.177 -108.13,-107.266 V 40.1634 c 0,-4.2667 -1.3,-8.2546 -3.39,-11.1246 -2.42,-3.0777 -5.96,-5.6689 -10.81,-7.9075 -5.13,-2.2386 -12.06,-3.9879 -20.72,-5.1058 -9.22,-1.1918 -20.45,-1.7494 -34.53,-1.7494 -12.88,0 -24.1,0.5576 -33.04,1.7494 -8.81,1.1179 -16.01,2.8672 -21,5.1058 -5.55,2.2386 -9.08,4.8298 -10.96,7.9075 -1.8,2.87 -2.98,6.8579 -2.98,11.1246 V 788.735 c 0,4.548 0.91,8.257 2.43,11.335 1.87,2.87 5.13,5.669 10.11,8.258 4.92,2.52 11.17,3.919 19.28,4.758 7.55,0.91 17.74,1.471 30.63,1.471 12.13,0 22.31,-0.561 30.42,-1.471 7.77,-0.839 14.2,-2.238 18.72,-4.758 4.08,-2.589 7.55,-5.388 9.49,-8.258 1.88,-3.078 2.83,-6.787 2.83,-11.335 v -99.08 c 42.21,47.092 84.08,81.726 126.21,103.628 41.72,21.831 83.86,32.959 126.49,32.959 49.96,0 91.96,-8.536 125.99,-25.611 34.1,-16.794 62.03,-39.464 82.88,-67.524 21,-28.408 36.12,-61.645 45.33,-99.362 9.23,-38.064 13.73,-83.757 13.73,-136.866 z m 1661.23,0 c 0,-4.2667 -0.83,-8.2546 -2.84,-11.6849 -2.01,-3.0778 -5.41,-5.9477 -9.92,-7.9048 -4.85,-1.681 -11.08,-3.4303 -18.78,-4.5482 -7.89,-1.1918 -17.25,-1.7494 -28.34,-1.7494 -11.65,0 -21.28,0.5576 -28.96,1.7494 -7.98,1.1179 -14.21,2.8672 -19.27,4.5482 -4.85,1.9571 -8.53,4.827 -10.81,7.9048 -2.29,3.4303 -3.41,7.4182 -3.41,11.6849 V 139.178 C 6527.78,96.3523 6486.95,63.1862 6444.33,39.3243 6402.06,15.4651 6355.47,3.49865 6305.23,3.49865 c -55.02,0 -101.87,10.77745 -140.75,32.11655 -38.61,21.3445 -70.14,50.2411 -94.25,86.6268 -24.12,36.318 -41.73,78.859 -52.82,127.983 -11.09,49.12 -16.77,100.761 -16.77,154.99 0,64.443 7.14,122.663 20.72,174.301 13.94,51.919 34.66,96.213 61.63,132.53 27.22,36.594 61.05,64.725 101.04,84.668 40.33,19.521 86.61,29.528 139.36,29.528 43.73,0 83.8,-9.725 120.1,-28.689 36.32,-19.382 72.36,-47.442 107.84,-84.668 v 435.235 c 0,3.71 0.91,7.34 2.85,11.05 2,3.71 5.68,6.51 11.36,8.26 5.41,1.96 12.48,3.64 21,5.11 8.53,1.4 19.62,1.96 32.99,1.96 13.87,0 25.23,-0.56 34.03,-1.96 8.8,-1.47 15.88,-3.15 20.72,-5.11 5.13,-1.75 8.8,-4.55 11.37,-8.26 2.56,-3.71 3.67,-7.34 3.67,-11.05 z M 6551.33,566.71 c -37.14,46.043 -73.18,80.89 -107.84,105.031 -34.64,24.14 -70.69,36.386 -108.46,36.386 -34.86,0 -64.72,-8.536 -88.85,-25.051 -24.38,-16.654 -44.28,-38.554 -59.59,-65.775 -15.31,-27.008 -26.41,-57.935 -33.21,-92.293 -7.13,-34.358 -10.52,-69.273 -10.52,-104.749 0,-37.717 2.83,-74.661 8.79,-110.7 5.69,-35.754 15.95,-67.871 30.44,-96.002 14.41,-28.057 33.46,-50.52 57.3,-67.242 23.85,-17.004 53.93,-25.541 89.69,-25.541 18.49,0 36.04,2.518 53.08,7.698 16.78,4.758 34.1,13.294 51.98,24.908 17.6,11.685 36.32,26.729 55.66,45.133 19.26,18.753 39.98,41.426 61.53,68.784 z M 8351.28,446.917 c 0,-21.55 -5.46,-37.154 -16.17,-46.251 -10.84,-9.096 -23.02,-13.644 -36.94,-13.644 h -490.86 c 0,-41.705 4.48,-78.93 12.66,-112.378 8.12,-33.237 22.04,-61.645 41.78,-85.435 19.24,-23.862 44.57,-42.337 75.5,-55.071 31.21,-12.806 68.78,-19.032 113.98,-19.032 35.48,0 66.97,2.799 94.82,8.746 27.5,5.737 51.64,12.245 71.79,19.664 20.15,7.065 36.87,13.573 49.96,19.242 13.15,5.948 22.74,8.815 29.67,8.815 3.57,0 7.2,-0.839 10.07,-2.867 3.08,-1.96 5.53,-4.759 7.14,-8.747 1.61,-3.988 3.08,-9.378 3.92,-16.164 0.56,-6.858 1.12,-15.323 1.12,-25.33 0,-7.347 -0.28,-13.577 -0.84,-18.6824 -0.56,-5.3901 -1.12,-9.9384 -1.82,-14.2051 -1.05,-4.2694 -2.38,-7.9785 -4.27,-11.4061 -2.17,-3.0777 -4.69,-6.5081 -7.48,-9.307 -3.15,-3.1488 -12.25,-8.2573 -27.29,-15.0442 -14.77,-6.7868 -34.36,-13.6447 -58.15,-20.4999 -23.86,-6.508 -51.43,-12.4557 -82.5,-17.8431 -31.42,-5.10856 -64.72,-7.97855 -100.2,-7.97855 -61.79,0 -115.53,8.81765 -161.99,25.82165 -46.25,17.3511 -85.01,42.8913 -116.78,76.6887 -31.49,33.798 -55.35,76.06 -71.58,127.14 -15.89,51.081 -24.29,110.418 -24.29,178.013 0,64.165 8.68,122.103 25.19,173.462 16.59,51.081 40.52,94.814 71.94,130.571 31.27,35.755 68.99,62.976 113.49,82.358 44.43,18.964 93.98,28.689 148.83,28.689 58.92,0 108.74,-9.447 150.17,-28.41 41.07,-18.754 75.22,-44.291 101.88,-76.129 26.73,-31.769 46.04,-69.276 58.63,-112.167 12.32,-43.105 18.62,-88.797 18.62,-137.636 z m -138.06,40.584 c 1.75,72.144 -14.06,128.961 -47.93,169.827 -33.31,41.074 -83.13,61.505 -148.97,61.505 -34.15,0 -63.54,-6.508 -89.01,-19.242 -25.54,-12.456 -46.95,-29.528 -63.88,-50.52 -17.36,-20.992 -30.79,-45.764 -40.17,-73.543 -9.24,-28.129 -14.76,-57.307 -15.95,-88.027 z m 1553.96,252.114 c 0,-12.246 -0.21,-22.392 -0.77,-30.649 -0.56,-8.536 -1.75,-15.044 -3.15,-19.593 -1.75,-4.827 -3.99,-8.186 -6.23,-10.774 -2.58,-2.589 -5.94,-3.778 -10.56,-3.778 -4.55,0 -9.87,1.189 -16.1,3.778 -6.57,2.588 -13.71,4.758 -21.62,7.347 -8.25,2.588 -17.07,4.827 -27,7.137 -10.15,2.238 -21,3.359 -32.61,3.359 -13.93,0 -27.29,-2.799 -40.66,-8.468 -13.29,-5.456 -27.5,-14.484 -41.98,-27.289 -14.76,-12.806 -30.09,-29.807 -46.32,-50.87 -15.82,-20.992 -33.73,-46.743 -52.97,-77.181 V 40.1634 c 0,-4.2667 -1.19,-8.2546 -3.5,-11.1246 -2.17,-3.0777 -5.95,-5.6689 -10.71,-7.9075 -5.11,-2.2386 -11.96,-3.9879 -20.71,-5.1058 -9.1,-1.1918 -20.5,-1.7494 -34.43,-1.7494 -13.01,0 -24.07,0.5576 -33.16,1.7494 -8.82,1.1179 -15.96,2.8672 -21,5.1058 -5.38,2.2386 -9.09,4.8298 -10.84,7.9075 -1.96,2.87 -3.08,6.8579 -3.08,11.1246 V 788.735 c 0,4.548 0.84,8.257 2.52,11.335 1.75,2.87 5.18,5.669 9.93,8.258 5.11,2.52 11.34,3.919 19.32,4.758 7.62,0.91 17.91,1.471 30.65,1.471 12.17,0 22.46,-0.561 30.36,-1.471 7.98,-0.839 14.21,-2.238 18.76,-4.758 4.27,-2.589 7.62,-5.388 9.65,-8.258 1.75,-3.078 2.87,-6.787 2.87,-11.335 V 679.719 c 20.44,30.089 39.68,54.508 57.66,73.262 18.12,18.682 35.13,33.726 51.36,44.572 15.81,10.775 31.77,18.122 47.65,22.391 15.89,3.988 31.84,6.298 47.65,6.298 7.42,0 15.61,-0.561 24.7,-1.471 9.17,-0.839 18.76,-2.307 28.69,-4.548 10.01,-2.239 19.11,-4.548 26.94,-7.416 8.26,-2.798 14,-5.668 17.07,-8.189 3.43,-2.867 5.67,-5.387 6.79,-7.904 1.19,-2.592 2.03,-5.738 2.87,-9.728 0.91,-3.917 1.47,-9.657 1.75,-17.001 0.21,-7.419 0.21,-17.565 0.21,-30.37 z m 1982.52,50.801 c 0,-3.988 -0.5,-8.468 -1.6,-14.205 -1.1,-5.669 -3.2,-12.456 -6,-20.713 L 11521.9,44.3618 c -1.8,-6.2265 -4.3,-10.9852 -8.1,-15.0415 -3.6,-3.9196 -8.4,-6.7895 -14.9,-9.0281 -6.3,-2.3097 -15.1,-3.7091 -26.3,-4.5483 -11,-0.9102 -24.9,-1.4678 -41.4,-1.4678 -17.3,0 -31.7,0.5576 -43.4,1.7494 -11.6,1.1179 -20.6,2.8672 -27.8,5.1058 -6.8,2.2386 -11.9,5.1086 -15.3,9.0282 -3.4,4.0589 -5.9,8.5361 -7.5,14.2023 l -157.1,543.1322 -1.7,7.348 -1.8,-7.348 L 11031,44.3618 c -1.5,-6.2265 -4.2,-10.9852 -7.7,-15.0415 -3.6,-3.9196 -9,-6.7895 -16.1,-9.0281 -7.4,-2.3097 -16.8,-3.7091 -28.2,-4.5483 -11.3,-0.9102 -25.1,-1.4678 -41.9,-1.4678 -17,0 -30.9,0.5576 -42,1.7494 -10.8,1.1179 -19.7,2.8672 -26.5,5.1058 -7,2.2386 -12.2,5.1086 -15.2,9.0282 -3.5,4.0589 -6,8.5361 -7.8,14.2023 L 10627,755.498 c -2.8,8.257 -4.7,15.044 -5.9,20.713 -1.2,5.737 -1.7,10.217 -1.7,14.205 0,4.827 1.1,9.097 3.5,11.964 2.2,3.08 5.9,5.669 11.3,7.629 5,2.028 12.2,3.077 20.9,3.638 9.2,0.628 20,0.91 32.8,0.91 15.2,0 27.7,-0.561 37.1,-1.471 9.7,-0.839 16.8,-1.888 21.9,-3.917 4.7,-2.03 8.4,-4.829 10.7,-8.538 2.1,-3.357 4,-7.698 5.6,-12.735 l 180.6,-617.162 1.7,-7.347 1.8,7.347 165.5,617.162 c 0.9,5.037 2.8,9.378 5.3,12.735 2.4,3.709 6.2,6.508 11.1,8.538 5.1,2.029 11.9,3.078 20.5,3.917 8.5,0.91 19.8,1.471 33.7,1.471 13.2,0 24.2,-0.561 32.7,-1.471 8.8,-0.839 15.7,-1.888 20.4,-3.917 5.1,-2.03 8.6,-4.551 10.8,-7.978 2.3,-3.359 4,-7.069 5.1,-11.617 l 178.8,-618.84 1.8,-7.347 0.6,7.347 177.9,617.162 c 1.2,5.037 3.1,9.378 5.5,12.735 2.4,3.709 6.5,6.508 11.6,8.538 5.4,2.029 12.5,3.078 21.8,3.917 9.1,0.91 20.7,1.471 35.2,1.471 13.4,0 24.1,-0.282 32.1,-0.91 8,-0.561 14.5,-1.889 19,-4.199 4.8,-2.309 8.2,-4.548 10,-7.347 1.9,-2.87 3,-6.858 3,-11.685 z m 1563.9,-343.499 c 0,-21.55 -5.5,-37.154 -16.3,-46.251 -10.8,-9.096 -23,-13.644 -36.9,-13.644 h -490.7 c 0,-41.705 4.1,-78.93 12.4,-112.378 8.2,-33.237 22.2,-61.645 41.7,-85.435 19.3,-23.862 44.7,-42.337 75.6,-55.071 31.2,-12.806 68.8,-19.032 114,-19.032 35.5,0 67,2.799 94.9,8.746 27.5,5.737 51.7,12.245 71.7,19.664 20.1,7.065 36.9,13.573 50.1,19.242 13,5.948 22.6,8.815 29.5,8.815 3.6,0 7.4,-0.839 10.2,-2.867 3.1,-1.96 5.3,-4.759 7,-8.747 1.8,-3.988 3.2,-9.378 4,-16.164 0.6,-6.858 1.1,-15.323 1.1,-25.33 0,-7.347 -0.3,-13.577 -0.8,-18.6824 -0.6,-5.3901 -1.1,-9.9384 -2,-14.2051 -0.7,-4.2694 -2.3,-7.9785 -4.2,-11.4061 -2,-3.0777 -4.6,-6.5081 -7.4,-9.307 -3.1,-3.1488 -12.2,-8.2573 -27.3,-15.0442 -14.7,-6.7868 -34.3,-13.6447 -58.2,-20.4999 -23.9,-6.508 -51.3,-12.4557 -82.6,-17.8431 -31.2,-5.10856 -64.6,-7.97855 -100.1,-7.97855 -61.6,0 -115.5,8.81765 -161.9,25.82165 -46.3,17.3511 -85.1,42.8913 -116.9,76.6887 -31.5,33.798 -55.4,76.06 -71.6,127.14 -15.8,51.081 -24.1,110.418 -24.1,178.013 0,64.165 8.5,122.103 24.9,173.462 16.8,51.081 40.7,94.814 72.2,130.571 31.2,35.755 69,62.976 113.6,82.358 44.2,18.964 94,28.689 148.7,28.689 58.8,0 108.7,-9.447 150.1,-28.41 41.2,-18.754 75.3,-44.291 102,-76.129 26.7,-31.769 45.9,-69.276 58.4,-112.167 12.6,-43.105 18.9,-88.797 18.9,-137.636 z m -138.1,40.584 c 1.8,72.144 -14.1,128.961 -48,169.827 -33.4,41.074 -83.1,61.505 -149,61.505 -34.1,0 -63.6,-6.508 -89.1,-19.242 -25.5,-12.456 -46.8,-29.528 -63.9,-50.52 -17.4,-20.992 -30.7,-45.764 -40,-73.543 -9.3,-28.129 -14.7,-57.307 -15.8,-88.027 z M 14841,39.3243 c 0,-6.5764 -2.2,-11.685 -6.8,-14.7627 -4.3,-3.4303 -10.5,-5.9477 -18.1,-7.697 -8.1,-1.7493 -19.5,-2.5885 -34.2,-2.5885 -14.5,0 -26,0.8392 -34.6,2.5885 -8.5,1.7493 -14.7,4.2667 -18.7,7.697 -4,3.0777 -5.7,8.1863 -5.7,14.7627 v 74.9417 c -33,-34.9177 -69.3,-62.2044 -109.6,-81.5181 -40,-19.2426 -82.6,-29.24925 -127.4,-29.24925 -39.5,0 -75.2,5.10858 -107,15.67285 -31.9,10.1488 -59.1,24.9115 -81.5,44.2935 -22.5,19.5241 -40.1,43.383 -52.5,71.515 -12.3,28.407 -18.5,60.455 -18.5,96.491 0,42.334 8.5,78.649 25.5,109.858 17.3,30.927 42,56.817 74.2,77.249 32,20.713 71.5,36.036 118.1,46.253 46.6,10.217 99.1,15.323 157.1,15.323 h 103.2 v 58.149 c 0,28.968 -3.2,54.579 -9.2,76.691 -6.2,22.181 -15.7,40.585 -29.4,55.069 -13.7,14.762 -31.3,25.818 -52.9,33.447 -21.5,7.487 -48.3,11.125 -79.7,11.125 -34.1,0 -64.2,-3.92 -91.2,-11.896 -26.9,-8.257 -50.5,-17.075 -70.6,-26.729 -20.5,-9.588 -37.2,-18.403 -50.8,-26.661 -13.6,-7.975 -23.6,-11.895 -30.4,-11.895 -4.3,0 -8.3,1.05 -11.6,3.08 -3.5,2.307 -6.2,5.738 -8.9,10.215 -2.2,4.269 -4.1,9.936 -5.4,17.075 -1.1,6.787 -1.7,14.413 -1.7,22.67 0,13.855 1.2,24.98 3.3,32.958 1.8,7.976 6.5,15.602 14.1,22.949 7.3,7.14 20.1,15.605 38.6,25.262 18.2,9.657 39.1,18.543 63,26.658 23.8,7.978 50,14.486 78.4,19.945 28,5.387 56.7,7.976 85.7,7.976 53.6,0 99.3,-6.298 137.1,-18.543 37.8,-12.174 68.2,-30.089 91.5,-53.601 23.2,-23.58 40.1,-52.829 50.7,-87.676 10.5,-34.987 15.9,-75.568 15.9,-122.171 z m -136.5,341.7497 h -117.3 c -37.7,0 -70.4,-3.149 -98.2,-9.378 -27.5,-6.505 -50.5,-15.883 -69,-28.407 -18.1,-12.456 -31.8,-27.5 -40.3,-44.854 -8.6,-17.562 -12.7,-37.436 -12.7,-60.106 0,-38.906 12.2,-69.905 36.9,-92.925 24.6,-22.951 59.2,-34.568 103.6,-34.568 36,0 69.2,9.099 100.1,27.5 30.8,18.193 63.1,46.324 96.9,84.11 z M 16300,739.615 c 0,-12.246 -0.3,-22.392 -1,-30.649 -0.5,-8.536 -1.5,-15.044 -3,-19.593 -1.7,-4.827 -3.9,-8.186 -6.2,-10.774 -2.5,-2.589 -6,-3.778 -10.6,-3.778 -4.5,0 -9.9,1.189 -16.2,3.778 -6.4,2.588 -13.6,4.758 -21.4,7.347 -8.3,2.588 -17.1,4.827 -27.1,7.137 -10.3,2.238 -20.9,3.359 -32.5,3.359 -14.1,0 -27.3,-2.799 -40.7,-8.468 -13.2,-5.456 -27.4,-14.484 -41.8,-27.289 -15,-12.806 -30.3,-29.807 -46.5,-50.87 -15.7,-20.992 -33.8,-46.743 -52.9,-77.181 V 40.1634 c 0,-4.2667 -1.3,-8.2546 -3.5,-11.1246 -2.4,-3.0777 -5.9,-5.6689 -10.6,-7.9075 -5.2,-2.2386 -12.3,-3.9879 -20.9,-5.1058 -9.2,-1.1918 -20.4,-1.7494 -34.5,-1.7494 -12.9,0 -24.1,0.5576 -32.9,1.7494 -8.9,1.1179 -16.1,2.8672 -21.1,5.1058 -5.6,2.2386 -9.2,4.8298 -11,7.9075 -2,2.87 -2.9,6.8579 -2.9,11.1246 V 788.735 c 0,4.548 0.8,8.257 2.3,11.335 1.9,2.87 5.2,5.669 10.2,8.258 5,2.52 11.2,3.919 19.2,4.758 7.5,0.91 17.8,1.471 30.5,1.471 12.2,0 22.5,-0.561 30.6,-1.471 7.9,-0.839 14.2,-2.238 18.8,-4.758 4,-2.589 7.5,-5.388 9.4,-8.258 1.8,-3.078 2.9,-6.787 2.9,-11.335 V 679.719 c 20.4,30.089 39.8,54.508 57.6,73.262 18.2,18.682 35.3,33.726 51.3,44.572 16,10.775 31.8,18.122 47.9,22.391 16,3.988 31.8,6.298 47.5,6.298 7.4,0 15.7,-0.561 24.9,-1.471 9,-0.839 18.6,-2.307 28.5,-4.548 10,-2.239 19,-4.548 27,-7.416 8.2,-2.798 13.9,-5.668 17.2,-8.189 3.2,-2.867 5.6,-5.387 6.7,-7.904 1.1,-2.592 2.1,-5.738 2.7,-9.728 0.9,-3.917 1.5,-9.657 1.8,-17.001 0.3,-7.419 0.3,-17.565 0.3,-30.37" /></g><g
         transform="scale(1.62728)"
         id="g22"><path
           id="path24"
           style="fill:none;stroke:#ec008c;stroke-width:98.32350159;stroke-linecap:butt;stroke-linejoin:miter;stroke-miterlimit:22.9260006;stroke-dasharray:none;stroke-opacity:1"
           d="M 399.487,1437.18 H 16300" /></g><g
         transform="scale(1.67484)"
         id="g26"><path
           id="path28"
           style="fill:none;stroke:#ffffff;stroke-width:11.94139957;stroke-linecap:butt;stroke-linejoin:miter;stroke-miterlimit:22.9260006;stroke-dasharray:none;stroke-opacity:1"
           d="m 1926.28,4258.3 c -148.25,194.81 -343,241.28 -566.77,241.28 -709.287,0 -1284.8061,-627.86 -1284.8061,-1313.84 0,-537.73 357.5431,-872.5 930.1661,-872.5 226.73,0 459.26,96.42 610.4,285.38 l 55.24,-285.38 h 130.81 l 194.74,730.1 c 29.04,107.5 52.34,127.9 168.6,127.9 h 101.72 l 40.69,156.95 H 1243.25 l -40.75,-156.95 h 168.61 c 93.02,0 139.55,-26.19 139.55,-125.02 0,-90.11 -84.32,-308.1 -157.01,-424.36 -69.71,-110.46 -188.94,-165.69 -331.33,-165.69 -180.197,0 -409.827,130.81 -409.827,549.37 0,351.69 127.853,764.48 311.004,1023.14 162.743,232.59 308.103,313.95 499.943,313.95 401.13,0 491.25,-386.58 497.05,-709.23 l 145.35,-14.56 156.95,813.86 h -125.01 z m 709.24,40.68 c 232.53,0 293.61,-5.78 293.61,-92.96 0,-46.54 -81.44,-372.08 -401.13,-1526.01 -43.65,-156.96 -75.58,-165.74 -270.84,-165.74 l -40.69,-156.91 h 1872.39 l 194.74,735.35 -136.61,31.99 c -264.45,-488.29 -584.21,-610.43 -819.64,-610.43 -264.51,0 -293.61,26.22 -293.61,119.18 0,46.56 11.65,87.23 392.43,1499.89 40.69,151.16 84.27,165.64 331.34,165.64 l 40.7,157.01 H 2676.19 Z m 2720.7,-1941.62 h 1066.72 l 40.66,156.91 c -241.22,0 -276.09,29.12 -308.09,183.17 l -377.82,1802.14 h -171.5 L 4597.56,2822.4 c -133.71,-220.88 -265,-308.13 -392.92,-308.13 l -40.67,-156.91 h 808.58 l 40.69,156.91 c -186.05,0 -273.28,23.27 -273.28,125.04 0,58.13 14.55,90.07 177.35,363.34 h 680.14 c 66.88,-328.51 69.77,-351.75 69.77,-392.43 0,-69.73 -43.58,-95.95 -156.94,-95.95 h -113.37 z m 206.33,819.68 h -543.52 l 406.91,697.58 z m 2238.19,-90.13 h -5.85 l -101.68,1369.08 h -845.87 l -40.72,-157.01 h 183.12 c 95.95,0 133.74,-20.33 133.74,-72.62 0,-46.54 -212.2,-816.79 -380.81,-1427.21 -58.09,-209.28 -130.82,-284.88 -294,-284.88 l -40.78,-156.91 h 715.59 l 40.66,156.91 c -188.91,0 -252.86,58.16 -252.86,177.32 0,66.88 8.72,107.56 351.68,1354.53 h 5.85 l 110.46,-1688.76 h 180.19 l 1020.22,1729.45 h 5.85 c -43.58,-180.19 -148.19,-581.33 -377.82,-1406.8 -43.65,-156.96 -75.59,-165.74 -287.79,-165.74 l -40.66,-156.91 h 1069.65 l 40.66,156.91 c -264.5,0 -293.58,26.22 -293.58,119.18 0,46.56 11.65,87.23 392.34,1499.89 40.72,151.16 84.36,165.64 279.13,165.64 l 40.72,157.01 h -790.7 z m 3275.76,720.89 c 0,-180.26 -63.7,-465.12 -136.6,-656.96 -171.5,-447.6 -398.2,-680.16 -648.1,-680.16 -194.8,0 -386.62,87.2 -386.62,549.41 0,180.19 63.95,465.07 136.52,656.9 168.7,447.59 398.3,680.18 651.1,680.18 191.9,0 383.7,-87.22 383.7,-549.37 z M 9387.82,3185.74 c 0,-537.73 357.52,-872.5 930.08,-872.5 700.6,0 1276.1,628.32 1276.1,1314.3 0,502.91 -389.4,872.04 -921.5,872.04 -709.16,0 -1284.68,-627.86 -1284.68,-1313.84 z m 4098.58,1113.24 c 188.9,0 282,-66.82 282,-174.4 0,-75.57 -8.9,-119.15 -258.9,-1026.02 -127.8,-459.25 -348.7,-610.38 -604.6,-610.38 -267.3,0 -447.7,127.84 -447.7,404 0,122.05 29.3,273.21 302.5,1244.06 43.6,154.05 69.8,162.74 218,162.74 h 95.9 l 40.5,157.01 h -1095.6 l -40.8,-157.01 h 130.8 c 116.4,0 151.1,-20.33 151.1,-78.46 0,-113.38 -302.2,-1031.89 -302.2,-1267.31 0,-456.38 389.4,-639.97 796.4,-639.97 500.1,0 776.2,206.82 892.3,631.28 l 273.4,985.33 c 90.1,325.55 186,369.13 357.5,369.13 l 40.7,157.01 h -790.6 z m 935.9,0 c 232.5,0 293.7,-5.78 293.7,-92.96 0,-46.54 -81.5,-372.08 -401.2,-1526.01 -43.7,-156.96 -75.6,-165.74 -270.9,-165.74 l -40.7,-156.91 h 1070.2 l 40.6,156.91 c -264.4,0 -293.5,26.22 -293.5,119.18 0,32 5.8,61.1 183.2,749.98 h 49.3 c 183.3,0 343,-17.44 343,-244.18 0,-87.22 -31.9,-299.4 -31.9,-412.78 0,-223.78 136.6,-413.23 421.5,-413.23 305.2,0 438.8,235.95 500,433.58 l -119.3,52.33 c -75.5,-168.59 -125,-264.52 -209.2,-264.52 -58.2,0 -75.6,37.8 -75.6,142.47 0,395.26 -5.9,497.05 -218,642.34 -55.3,37.79 -130.9,61.03 -223.8,84.34 v 5.79 c 354.6,0 860.3,125.01 860.3,569.72 0,299.36 -238.4,476.7 -744.1,476.7 H 14463 Z m 799.4,-136.61 c 37.7,133.72 52.2,136.61 206.4,136.61 200.4,0 354.5,-69.71 354.5,-287.76 0,-191.84 -122,-372.03 -220.9,-424.36 -116.2,-61.03 -226.7,-61.03 -517.3,-61.03 z" /></g><g
         transform="scale(1.66717)"
         id="g30"><path
           id="path32"
           style="fill:#ec008c;fill-opacity:1;fill-rule:evenodd;stroke:none"
           d="M 1860.1,4277.91 C 1711.16,4473.61 1515.53,4520.3 1290.73,4520.3 578.171,4520.3 0,3889.54 0,3200.4 c 0,-540.2 359.189,-876.52 934.448,-876.52 227.772,0 461.372,96.88 613.212,286.71 l 55.49,-286.71 h 131.42 l 195.63,733.47 c 29.18,108 52.58,128.49 169.38,128.49 h 102.18 l 40.88,157.67 H 1173.93 L 1133,3185.84 h 169.37 c 93.45,0 140.2,-26.31 140.2,-125.59 0,-90.53 -84.71,-309.53 -157.73,-426.32 -70.03,-110.97 -189.81,-166.45 -332.864,-166.45 -181.022,0 -411.709,131.41 -411.709,551.9 0,353.3 128.437,767.99 312.432,1027.85 163.501,233.65 309.521,315.39 502.251,315.39 402.97,0 493.51,-388.36 499.33,-712.49 l 146.03,-14.63 157.66,817.6 h -125.59 z m 712.51,40.86 c 233.59,0 294.95,-5.81 294.95,-93.39 0,-46.75 -81.8,-373.79 -402.97,-1533.04 -43.85,-157.68 -75.93,-166.5 -272.09,-166.5 l -40.87,-157.63 h 1881.01 l 195.63,738.74 -137.24,32.14 c -265.67,-490.55 -586.9,-613.25 -823.41,-613.25 -265.73,0 -294.96,26.34 -294.96,119.73 0,46.77 11.7,87.64 394.24,1506.79 40.87,151.87 84.65,166.41 332.87,166.41 l 40.87,157.73 H 2613.47 Z M 5305.83,2368.21 h 1071.64 l 40.85,157.63 c -242.33,0 -277.36,29.26 -309.51,184.02 L 5729.25,4520.3 h -172.3 L 4543.67,2835.39 c -134.32,-221.9 -266.21,-309.55 -394.71,-309.55 l -40.87,-157.63 h 812.3 l 40.87,157.63 c -186.9,0 -274.53,23.38 -274.53,125.62 0,58.4 14.62,90.48 178.17,365.01 h 683.27 c 67.19,-330.02 70.09,-353.37 70.09,-394.23 0,-70.06 -43.78,-96.4 -157.66,-96.4 h -113.89 z m 207.28,823.46 h -546.02 l 408.78,700.79 z m 2248.45,-90.54 h -5.82 L 7653.59,4476.5 h -849.77 l -40.9,-157.73 h 183.96 c 96.39,0 134.36,-20.43 134.36,-72.95 0,-46.75 -213.18,-820.56 -382.56,-1433.78 -58.43,-210.25 -131.43,-286.2 -295.36,-286.2 l -40.96,-157.63 h 718.88 l 40.85,157.63 c -189.78,0 -254.03,58.43 -254.03,178.14 0,67.19 8.76,108.06 353.3,1360.77 h 5.88 l 110.9,-1696.54 h 181.09 l 1024.91,1737.41 h 5.82 c -43.73,-181.02 -148.88,-584 -379.51,-1413.28 -43.84,-157.68 -75.93,-166.5 -289.11,-166.5 l -40.85,-157.63 h 1074.58 l 40.85,157.63 c -265.72,0 -294.93,26.34 -294.93,119.73 0,46.77 11.69,87.64 394.14,1506.79 40.91,151.87 84.75,166.41 280.42,166.41 l 40.9,157.73 h -794.34 z m 3290.94,724.2 c 0,-181.09 -64,-467.26 -137.3,-659.98 -172.2,-449.66 -400,-683.29 -651.1,-683.29 -195.7,0 -388.42,87.59 -388.42,551.93 0,181.02 64.31,467.21 137.22,659.93 169.5,449.65 400.1,683.31 654.1,683.31 192.7,0 385.5,-87.63 385.5,-551.9 z M 9356,3200.4 c 0,-540.2 359.17,-876.52 934.4,-876.52 703.8,0 1281.9,631.23 1281.9,1320.36 0,505.23 -391.2,876.06 -925.7,876.06 -712.44,0 -1290.6,-630.76 -1290.6,-1319.9 z m 4117.4,1118.37 c 189.7,0 283.2,-67.13 283.2,-175.2 0,-75.92 -8.8,-119.7 -259.9,-1030.74 -128.4,-461.37 -350.4,-613.2 -607.4,-613.2 -268.5,0 -449.7,128.43 -449.7,405.86 0,122.62 29.3,274.47 303.8,1249.79 43.8,154.76 70.1,163.49 219,163.49 h 96.4 l 40.7,157.73 h -1100.8 l -40.9,-157.73 h 131.4 c 116.9,0 151.8,-20.43 151.8,-78.82 0,-113.9 -303.6,-1036.64 -303.6,-1273.14 0,-458.48 391.2,-642.93 800,-642.93 502.4,0 779.9,207.78 896.5,634.2 l 274.6,989.87 c 90.5,327.04 186.9,370.82 359.2,370.82 l 40.9,157.73 h -794.3 z m 940.2,0 c 233.6,0 295,-5.81 295,-93.39 0,-46.75 -81.8,-373.79 -403,-1533.04 -43.9,-157.68 -75.9,-166.5 -272.1,-166.5 l -40.8,-157.63 h 1075 l 40.9,157.63 c -265.7,0 -294.9,26.34 -294.9,119.73 0,32.15 5.8,61.38 184,753.44 h 49.6 c 184,0 344.6,-17.53 344.6,-245.31 0,-87.62 -32.1,-300.78 -32.1,-414.67 0,-224.82 137.2,-415.15 423.5,-415.15 306.5,0 440.8,237.04 502.2,435.59 l -119.8,52.57 c -75.9,-169.37 -125.6,-265.74 -210.2,-265.74 -58.5,0 -75.9,37.97 -75.9,143.12 0,397.09 -6,499.34 -219.1,645.3 -55.5,37.96 -131.4,61.31 -224.8,84.73 v 5.81 c 356.2,0 864.3,125.59 864.3,572.35 0,300.73 -239.4,478.89 -747.5,478.89 h -1098 z m 803.1,-137.24 c 37.9,134.34 52.5,137.24 207.3,137.24 201.4,0 356.3,-70.03 356.3,-289.08 0,-192.72 -122.6,-373.74 -222,-426.32 -116.8,-61.31 -227.8,-61.31 -519.7,-61.31 l 178.1,639.47" /></g><path
         id="path34"
         style="fill:none;stroke:#ec008c;stroke-width:190;stroke-linecap:butt;stroke-linejoin:miter;stroke-miterlimit:10;stroke-dasharray:none;stroke-opacity:1"
         d="m 13629.2,10003.7 c 1293.1,0 2357,-212.04 2357,-456.9 0,-245.02 -1063.9,-430.14 -2357,-430.14 -1293.1,0 -2364.6,198.51 -2364.6,443.53 0,244.86 1071.5,443.51 2364.6,443.51 z" /><g
         transform="scale(1.05803)"
         id="g36"><path
           id="path38"
           style="fill:#ec008c;fill-opacity:1;fill-rule:nonzero;stroke:none"
           d="m 10523.5,12590.4 c 207.6,-187.6 601.7,-118.2 627.3,-810.1 344.2,358.7 448.1,-123.6 534.4,-447.2 62.9,-236 -45.7,-522.9 57.3,-928.8 -137.7,34.9 -222.9,171.8 -255.7,410.5 -74.2,397.6 -375.8,299.1 -281.7,-124.1 198.6,-548.3 547.9,-657.3 860.1,-607 343.2,55.1 642.2,394.7 614.4,950.6 -93.9,289.4 -196.5,299.1 -308,28.5 -65.5,-200.4 32.7,-525 -196.6,-601.4 15.3,388.1 -270.9,776.4 -268.7,1078.8 48,513.9 128.7,667.9 526.3,418 -218.5,634.8 233.5,1197.2 430.2,1497.9 209.7,-330.9 597.4,-804.4 424.8,-1472.7 470.3,371.2 637.3,-146.7 511,-522.9 -103.1,-306.7 -285.7,-778.3 -253.9,-999 -345.2,98.6 4.3,779.7 -366.9,782.8 -257.8,-92.3 -203.2,-601.4 85.1,-926.1 161.7,-178.1 358.3,-254.5 589.9,-229 284.1,7.3 506.1,256.5 685.6,671.2 62.3,268.1 -152.6,436.8 -240.1,199.5 -60.2,-303.1 -150.3,-507.8 -317.2,-568.9 61.8,323.3 21.3,711.4 65.4,1028.2 138.3,449 239.3,631 520.1,388.3 26.5,742.5 487.1,674.2 654,953.6 32.1,-362.6 348.8,-541.8 3.8,-1141.3 272.7,-52.3 260.1,-256.1 34.2,-758.2 -87.3,-213.9 -241.5,-382.6 -315.5,-603.1 -145.2,220 20.8,323.1 31.3,484.9 31.3,264.5 -182,226.6 -293.1,-152.7 -38,-439.1 87.8,-727.01 574.3,-682.41 188.8,98.91 329.6,261.11 399.8,515.61 32.1,142.2 -11.3,226.1 -104,173.8 -96.2,-149.7 -219.2,-481.2 -288.9,-449.5 45.1,218.8 112.4,450.5 157.6,669.2 94.3,397.9 228,508.5 401.4,332.1 43.7,333.2 316.5,624.7 478.5,731.8 l -289.9,-930.8 c -229,51 -48.3,143.5 0,0 l -732.9,-1614.83 c -209,-41.06 -131.7,162.11 0,0 l -87.2,-315.78 c -1548.9,475.85 -3089.3,478.72 -4620.6,-38.08 l -124.6,257.65 c 168.2,184.48 196.6,-6.39 0,0 l -550.48,1269.64 c 118.98,179.1 210.08,34.8 0,0 -84.68,270.5 -372.01,1021.5 -510.09,1343.8 222.86,-92.1 488.26,-433.7 536.27,-780.6 122.2,225.8 253.4,146.3 393.2,-238.5 63.3,-248.1 51,-451.1 190.1,-744.6 -196.6,63.6 -209.8,299.2 -314.6,448.7 -76.4,101.8 -185.7,-6.3 -111.4,-181.4 293.8,-617.32 750.4,-719.16 970,-104.9 50.2,276.7 -13.2,490.1 -190.1,639.6 -117.8,0 -137.6,-124 -78.5,-286.3 61,-124 102.5,-210 26.2,-400.9 -158.5,393.3 -312.6,518 -393.3,726.8 -134.3,348 -201.4,641.2 135.8,675.8 -306.9,469.2 -110.6,699.6 -63.6,1060.9 l 39.3,-77.1 h -0.1" /></g><path
         id="path40"
         style="fill:none;stroke:#ec008c;stroke-width:160;stroke-linecap:butt;stroke-linejoin:miter;stroke-miterlimit:10;stroke-dasharray:none;stroke-opacity:1"
         d="m 10599,11483.1 c -13.3,21.3 -272.6,1822.8 2002.2,1751" /><g
         transform="scale(1.0531)"
         id="g42"><path
           id="path44"
           style="fill:none;stroke:#ec008c;stroke-width:151.93299866;stroke-linecap:butt;stroke-linejoin:miter;stroke-miterlimit:10;stroke-dasharray:none;stroke-opacity:1"
           d="m 15833,10730.2 c 16.1,17.4 467,2076.9 -1873.1,1836.7" /></g><path
         id="path46"
         style="fill:none;stroke:#ec008c;stroke-width:160;stroke-linecap:butt;stroke-linejoin:miter;stroke-miterlimit:10;stroke-dasharray:none;stroke-opacity:1"
         d="m 11983.4,12280.1 c 0,0 355,1188.8 1369,1273.8" /><path
         id="path48"
         style="fill:none;stroke:#ec008c;stroke-width:160;stroke-linecap:butt;stroke-linejoin:miter;stroke-miterlimit:10;stroke-dasharray:none;stroke-opacity:1"
         d="m 15247,12280.1 c 0,0 -146.1,1108.8 -1324.6,1273.8" /></g></g></svg>